0
SECTION
2
HEADER
9
$INSUNITS
70
4
9
$ACADVER
1
AC1014
9
$HANDSEED
5
FFFF
0
ENDSEC
0
SECTION
2
TABLES
0
TABLE
2
VPORT
5
8
100
AcDbSymbolTable
0
ENDTAB
0
TABLE
2
LTYPE
5
5
100
AcDbSymbolTable
0
LTYPE
5
14
100
AcDbSymbolTableRecord
100
AcDbLinetypeTableRecord
2
BYBLOCK
70
0
0
LTYPE
5
15
100
AcDbSymbolTableRecord
100
AcDbLinetypeTableRecord
2
BYLAYER
70
0
0
ENDTAB
0
TABLE
2
LAYER
5
2
100
AcDbSymbolTable
70
2
0
LAYER
5
50
100
AcDbSymbolTableRecord
100
AcDbLayerTableRecord
2
0
70
0
6
CONTINUOUS
0
ENDTAB
0
TABLE
2
STYLE
5
3
100
AcDbSymbolTable
70
1
0
STYLE
5
11
100
AcDbSymbolTableRecord
100
AcDbTextStyleTableRecord
2
STANDARD
70
0
0
ENDTAB
0
TABLE
2
VIEW
5
6
100
AcDbSymbolTable
70
0
0
ENDTAB
0
TABLE
2
UCS
5
7
100
AcDbSymbolTable
70
0
0
ENDTAB
0
TABLE
2
APPID
5
9
100
AcDbSymbolTable
70
2
0
APPID
5
12
100
AcDbSymbolTableRecord
100
AcDbRegAppTableRecord
2
ACAD
70
0
0
ENDTAB
0
TABLE
2
DIMSTYLE
5
A
100
AcDbSymbolTable
70
1
0
ENDTAB
0
TABLE
2
BLOCK_RECORD
5
1
100
AcDbSymbolTable
70
1
0
BLOCK_RECORD
5
1F
100
AcDbSymbolTableRecord
100
AcDbBlockTableRecord
2
*MODEL_SPACE
0
BLOCK_RECORD
5
1B
100
AcDbSymbolTableRecord
100
AcDbBlockTableRecord
2
*PAPER_SPACE
0
ENDTAB
0
ENDSEC
0
SECTION
2
BLOCKS
0
BLOCK
5
20
100
AcDbEntity
100
AcDbBlockBegin
2
*MODEL_SPACE
0
ENDBLK
5
21
100
AcDbEntity
100
AcDbBlockEnd
0
BLOCK
5
1C
100
AcDbEntity
100
AcDbBlockBegin
2
*PAPER_SPACE
0
ENDBLK
5
1D
100
AcDbEntity
100
AcDbBlockEnd
0
ENDSEC
0
SECTION
2
ENTITIES
0
LINE
5
100
100
AcDbEntity
8
0
100
AcDbLine
10
8.0284552621443712
20
83.467318887949787
30
0
11
8.028455262144373
21
74.463764638024898
31
0
0
LINE
5
101
100
AcDbEntity
8
0
100
AcDbLine
10
11.028455262144373
20
71.463764638024898
30
0
11
11.999999999999996
21
71.463764638024898
31
0
0
LINE
5
102
100
AcDbEntity
8
0
100
AcDbLine
10
14.999999999999998
20
68.463764638024898
30
0
11
15
21
60
31
0
0
LINE
5
103
100
AcDbEntity
8
0
100
AcDbLine
10
15
20
60
30
0
11
15.000000000000002
21
43.426953278691059
31
0
0
LINE
5
104
100
AcDbEntity
8
0
100
AcDbLine
10
18.000000000000028
20
40.426953278691037
30
0
11
18.734582869393776
21
40.426953278691037
31
0
0
LINE
5
105
100
AcDbEntity
8
0
100
AcDbLine
10
21.734582869393797
20
37.426953278691016
30
0
11
21.734582869393805
21
27.916084526291623
31
0
0
LINE
5
106
100
AcDbEntity
8
0
100
AcDbLine
10
24.734582869393833
20
24.916084526291606
30
0
11
26.000000432133636
21
24.916084526291606
31
0
0
LINE
5
107
100
AcDbEntity
8
0
100
AcDbLine
10
29.000000432133657
20
21.916084526291595
30
0
11
29.000000432133675
21
12.490469575144427
31
0
0
LINE
5
108
100
AcDbEntity
8
0
100
AcDbLine
10
32.000000432133703
20
9.4904695751444059
30
0
11
32.575144232467153
21
9.4904695751444059
31
0
0
LINE
5
109
100
AcDbEntity
8
0
100
AcDbLine
10
35.575144232467174
20
-3.7199018211449446
30
0
11
-55.000000819563823
21
-3.7199018211449779
31
0
0
LINE
5
110
100
AcDbEntity
8
0
100
AcDbLine
10
35.575144232467181
20
6.4904695751443819
30
0
11
35.575144232467181
21
1.283464590665305
31
0
0
LINE
5
111
100
AcDbEntity
8
0
100
AcDbLine
10
-9.712428293548319
20
86.467318887949801
30
0
11
-9.7124282935483244
21
-3.7199018211449615
31
0
0
LINE
5
112
100
AcDbEntity
8
0
100
AcDbLine
10
-9.712428293548319
20
86.467318887949801
30
0
11
5.0284552621443748
21
86.467318887949801
31
0
0
LINE
5
113
100
AcDbEntity
8
0
100
AcDbLine
10
-9.712428293548319
20
86.467318887949801
30
0
11
-24.453311849240986
21
86.467318887949801
31
0
0
LINE
5
114
100
AcDbEntity
8
0
100
AcDbLine
10
-27.453311849241008
20
83.467318887949773
30
0
11
-27.453311849241015
21
74.466526440722163
31
0
0
LINE
5
115
100
AcDbEntity
8
0
100
AcDbLine
10
-30.45331184924104
20
71.466526440722134
30
0
11
-31.424856587096617
21
71.466526440722134
31
0
0
LINE
5
116
100
AcDbEntity
8
0
100
AcDbLine
10
-34.424856587096642
20
68.466526440722106
30
0
11
-34.424856587096642
21
60
31
0
0
LINE
5
117
100
AcDbEntity
8
0
100
AcDbLine
10
-34.424856587096642
20
60
30
0
11
-34.424856587096649
21
43.426953278691059
31
0
0
LINE
5
118
100
AcDbEntity
8
0
100
AcDbLine
10
-37.415567002801303
20
40.426967661466904
30
0
11
-38.454620380495072
21
40.423750188053845
31
0
0
LINE
5
119
100
AcDbEntity
8
0
100
AcDbLine
10
-41.445330796212204
20
37.42376457079974
30
0
11
-41.445330796212083
21
27.916084526291641
31
0
0
LINE
5
120
100
AcDbEntity
8
0
100
AcDbLine
10
-51.424857019230352
20
9.4904695751444148
30
0
11
-52.000000819563809
21
9.4904695751444166
31
0
0
LINE
5
121
100
AcDbEntity
8
0
100
AcDbLine
10
-55.00000081956383
20
6.4904695751443908
30
0
11
-55.00000081956383
21
1.283464590665333
31
0
0
LINE
5
122
100
AcDbEntity
8
0
100
AcDbLine
10
-48.424857019230323
20
21.618941140222972
30
0
11
-48.424857019230323
21
12.490469575144436
31
0
0
LINE
5
123
100
AcDbEntity
8
0
100
AcDbLine
10
-7.2124282935483395
20
79.66731888794979
30
0
11
-12.21242829354833
21
79.66731888794979
31
0
0
LINE
5
124
100
AcDbEntity
8
0
100
AcDbLine
10
-12.21242829354833
20
79.66731888794979
30
0
11
-12.212428293548339
21
84.667318887949804
31
0
0
LINE
5
125
100
AcDbEntity
8
0
100
AcDbLine
10
-12.212428293548339
20
84.667318887949804
30
0
11
-7.2124282935483395
21
84.667318887949804
31
0
0
LINE
5
126
100
AcDbEntity
8
0
100
AcDbLine
10
-7.2124282935483395
20
84.667318887949804
30
0
11
-7.2124282935483395
21
79.66731888794979
31
0
0
LINE
5
127
100
AcDbEntity
8
0
100
AcDbLine
10
-7.2124282935483395
20
79.66731888794979
30
0
11
-12.212428293548339
21
84.667318887949804
31
0
0
LINE
5
128
100
AcDbEntity
8
0
100
AcDbLine
10
-12.21242829354833
20
79.66731888794979
30
0
11
-7.2124282935483395
21
84.667318887949804
31
0
0
LWPOLYLINE
5
129
100
AcDbEntity
8
0
100
AcDbPolyline
90
4
70
1
43
0.0
10
-26.212428293548342
20
84.667318887949804
10
-26.212428293548335
20
79.66731888794979
10
-21.212428293548342
20
79.66731888794979
10
-21.212428293548342
20
84.667318887949804
0
LWPOLYLINE
5
130
100
AcDbEntity
8
0
100
AcDbPolyline
90
4
70
1
43
0.0
10
-19.212428293548342
20
84.667318887949804
10
-19.212428293548331
20
79.66731888794979
10
-14.21242829354834
20
79.66731888794979
10
-14.21242829354834
20
84.667318887949804
0
LWPOLYLINE
5
131
100
AcDbEntity
8
0
100
AcDbPolyline
90
4
70
1
43
0.0
10
-5.2124282935483377
20
84.667318887949804
10
-5.2124282935483288
20
79.66731888794979
10
-0.21242829354833903
20
79.66731888794979
10
-0.21242829354833903
20
84.667318887949804
0
LWPOLYLINE
5
132
100
AcDbEntity
8
0
100
AcDbPolyline
90
4
70
1
43
0.0
10
1.7875717064516627
20
84.667318887949804
10
1.7875717064516716
20
79.66731888794979
10
6.7875717064516614
20
79.66731888794979
10
6.7875717064516614
20
84.667318887949804
0
LWPOLYLINE
5
133
100
AcDbEntity
8
0
100
AcDbPolyline
90
4
70
1
43
0.0
10
-12.212428293548339
20
69.067318887949796
10
-12.21242829354833
20
64.067318887949781
10
-7.2124282935483395
20
64.067318887949781
10
-7.2124282935483395
20
69.067318887949796
0
LWPOLYLINE
5
134
100
AcDbEntity
8
0
100
AcDbPolyline
90
4
70
1
43
0.0
10
-12.212428293548339
20
53.467318887949787
10
-12.21242829354833
20
48.467318887949773
10
-7.2124282935483395
20
48.467318887949773
10
-7.2124282935483395
20
53.467318887949787
0
LWPOLYLINE
5
135
100
AcDbEntity
8
0
100
AcDbPolyline
90
4
70
1
43
0.0
10
-12.212428293548339
20
37.867318887949786
10
-12.21242829354833
20
32.867318887949764
10
-7.2124282935483395
20
32.867318887949764
10
-7.2124282935483395
20
37.867318887949786
0
LWPOLYLINE
5
136
100
AcDbEntity
8
0
100
AcDbPolyline
90
4
70
1
43
0.0
10
-12.212428293548339
20
22.267318887949781
10
-12.21242829354833
20
17.267318887949763
10
-7.2124282935483395
20
17.267318887949763
10
-7.2124282935483395
20
22.267318887949781
0
LWPOLYLINE
5
137
100
AcDbEntity
8
0
100
AcDbPolyline
90
4
70
1
43
0.0
10
-12.212428293548339
20
6.6673188879497758
10
-12.21242829354833
20
1.667318887949758
10
-7.2124282935483395
20
1.667318887949758
10
-7.2124282935483395
20
6.6673188879497758
0
LWPOLYLINE
5
138
100
AcDbEntity
8
0
100
AcDbPolyline
90
4
70
1
43
0.0
10
-33.212428293548342
20
69.067318887949796
10
-33.212428293548328
20
64.067318887949781
10
-28.212428293548339
20
64.067318887949781
10
-28.212428293548339
20
69.067318887949796
0
LWPOLYLINE
5
139
100
AcDbEntity
8
0
100
AcDbPolyline
90
4
70
1
43
0.0
10
-26.212428293548342
20
69.067318887949796
10
-26.212428293548335
20
64.067318887949781
10
-21.212428293548342
20
64.067318887949781
10
-21.212428293548342
20
69.067318887949796
0
LWPOLYLINE
5
140
100
AcDbEntity
8
0
100
AcDbPolyline
90
4
70
1
43
0.0
10
-19.212428293548342
20
69.067318887949796
10
-19.212428293548331
20
64.067318887949781
10
-14.21242829354834
20
64.067318887949781
10
-14.21242829354834
20
69.067318887949796
0
LWPOLYLINE
5
141
100
AcDbEntity
8
0
100
AcDbPolyline
90
4
70
1
43
0.0
10
-5.2124282935483377
20
69.067318887949796
10
-5.2124282935483288
20
64.067318887949781
10
-0.21242829354833903
20
64.067318887949781
10
-0.21242829354833903
20
69.067318887949796
0
LWPOLYLINE
5
142
100
AcDbEntity
8
0
100
AcDbPolyline
90
4
70
1
43
0.0
10
1.7875717064516627
20
69.067318887949796
10
1.7875717064516716
20
64.067318887949781
10
6.7875717064516614
20
64.067318887949781
10
6.7875717064516614
20
69.067318887949796
0
LWPOLYLINE
5
143
100
AcDbEntity
8
0
100
AcDbPolyline
90
4
70
1
43
0.0
10
8.7875717064516614
20
69.067318887949796
10
8.7875717064516721
20
64.067318887949781
10
13.787571706451661
20
64.067318887949781
10
13.787571706451661
20
69.067318887949796
0
LWPOLYLINE
5
144
100
AcDbEntity
8
0
100
AcDbPolyline
90
4
70
1
43
0.0
10
-33.212428293548342
20
53.467318887949787
10
-33.212428293548328
20
48.467318887949773
10
-28.212428293548339
20
48.467318887949773
10
-28.212428293548339
20
53.467318887949787
0
LWPOLYLINE
5
145
100
AcDbEntity
8
0
100
AcDbPolyline
90
4
70
1
43
0.0
10
-26.212428293548342
20
53.467318887949787
10
-26.212428293548335
20
48.467318887949773
10
-21.212428293548342
20
48.467318887949773
10
-21.212428293548342
20
53.467318887949787
0
LWPOLYLINE
5
146
100
AcDbEntity
8
0
100
AcDbPolyline
90
4
70
1
43
0.0
10
-19.212428293548342
20
53.467318887949787
10
-19.212428293548331
20
48.467318887949773
10
-14.21242829354834
20
48.467318887949773
10
-14.21242829354834
20
53.467318887949787
0
LWPOLYLINE
5
147
100
AcDbEntity
8
0
100
AcDbPolyline
90
4
70
1
43
0.0
10
-5.2124282935483377
20
53.467318887949787
10
-5.2124282935483288
20
48.467318887949773
10
-0.21242829354833903
20
48.467318887949773
10
-0.21242829354833903
20
53.467318887949787
0
LWPOLYLINE
5
148
100
AcDbEntity
8
0
100
AcDbPolyline
90
4
70
1
43
0.0
10
1.7875717064516627
20
53.467318887949787
10
1.7875717064516716
20
48.467318887949773
10
6.7875717064516614
20
48.467318887949773
10
6.7875717064516614
20
53.467318887949787
0
LWPOLYLINE
5
149
100
AcDbEntity
8
0
100
AcDbPolyline
90
4
70
1
43
0.0
10
8.7875717064516614
20
53.467318887949787
10
8.7875717064516721
20
48.467318887949773
10
13.787571706451661
20
48.467318887949773
10
13.787571706451661
20
53.467318887949787
0
LWPOLYLINE
5
150
100
AcDbEntity
8
0
100
AcDbPolyline
90
4
70
1
43
0.0
10
-40.212428293548342
20
37.867318887949786
10
-40.212428293548328
20
32.867318887949764
10
-35.212428293548342
20
32.867318887949764
10
-35.212428293548342
20
37.867318887949786
0
LWPOLYLINE
5
151
100
AcDbEntity
8
0
100
AcDbPolyline
90
4
70
1
43
0.0
10
-33.212428293548342
20
37.867318887949786
10
-33.212428293548328
20
32.867318887949764
10
-28.212428293548339
20
32.867318887949764
10
-28.212428293548339
20
37.867318887949786
0
LWPOLYLINE
5
152
100
AcDbEntity
8
0
100
AcDbPolyline
90
4
70
1
43
0.0
10
-26.212428293548342
20
37.867318887949786
10
-26.212428293548335
20
32.867318887949764
10
-21.212428293548342
20
32.867318887949764
10
-21.212428293548342
20
37.867318887949786
0
LWPOLYLINE
5
153
100
AcDbEntity
8
0
100
AcDbPolyline
90
4
70
1
43
0.0
10
-19.212428293548342
20
37.867318887949786
10
-19.212428293548331
20
32.867318887949764
10
-14.21242829354834
20
32.867318887949764
10
-14.21242829354834
20
37.867318887949786
0
LWPOLYLINE
5
154
100
AcDbEntity
8
0
100
AcDbPolyline
90
4
70
1
43
0.0
10
-5.2124282935483377
20
37.867318887949786
10
-5.2124282935483288
20
32.867318887949764
10
-0.21242829354833903
20
32.867318887949764
10
-0.21242829354833903
20
37.867318887949786
0
LWPOLYLINE
5
155
100
AcDbEntity
8
0
100
AcDbPolyline
90
4
70
1
43
0.0
10
1.7875717064516627
20
37.867318887949786
10
1.7875717064516716
20
32.867318887949764
10
6.7875717064516614
20
32.867318887949764
10
6.7875717064516614
20
37.867318887949786
0
LWPOLYLINE
5
156
100
AcDbEntity
8
0
100
AcDbPolyline
90
4
70
1
43
0.0
10
8.7875717064516614
20
37.867318887949786
10
8.7875717064516721
20
32.867318887949764
10
13.787571706451661
20
32.867318887949764
10
13.787571706451661
20
37.867318887949786
0
LWPOLYLINE
5
157
100
AcDbEntity
8
0
100
AcDbPolyline
90
4
70
1
43
0.0
10
15.787571706451665
20
37.867318887949786
10
15.787571706451672
20
32.867318887949764
10
20.787571706451665
20
32.867318887949764
10
20.787571706451665
20
37.867318887949786
0
LWPOLYLINE
5
158
100
AcDbEntity
8
0
100
AcDbPolyline
90
4
70
1
43
0.0
10
-47.212428293548342
20
22.267318887949781
10
-47.212428293548342
20
17.267318887949763
10
-42.212428293548349
20
17.267318887949763
10
-42.212428293548349
20
22.267318887949781
0
LWPOLYLINE
5
159
100
AcDbEntity
8
0
100
AcDbPolyline
90
4
70
1
43
0.0
10
-40.212428293548342
20
22.267318887949781
10
-40.212428293548328
20
17.267318887949763
10
-35.212428293548342
20
17.267318887949763
10
-35.212428293548342
20
22.267318887949781
0
LWPOLYLINE
5
160
100
AcDbEntity
8
0
100
AcDbPolyline
90
4
70
1
43
0.0
10
-33.212428293548342
20
22.267318887949781
10
-33.212428293548328
20
17.267318887949763
10
-28.212428293548339
20
17.267318887949763
10
-28.212428293548339
20
22.267318887949781
0
LWPOLYLINE
5
161
100
AcDbEntity
8
0
100
AcDbPolyline
90
4
70
1
43
0.0
10
-26.212428293548342
20
22.267318887949781
10
-26.212428293548335
20
17.267318887949763
10
-21.212428293548342
20
17.267318887949763
10
-21.212428293548342
20
22.267318887949781
0
LWPOLYLINE
5
162
100
AcDbEntity
8
0
100
AcDbPolyline
90
4
70
1
43
0.0
10
-19.212428293548342
20
22.267318887949781
10
-19.212428293548331
20
17.267318887949763
10
-14.21242829354834
20
17.267318887949763
10
-14.21242829354834
20
22.267318887949781
0
LWPOLYLINE
5
163
100
AcDbEntity
8
0
100
AcDbPolyline
90
4
70
1
43
0.0
10
-5.2124282935483377
20
22.267318887949781
10
-5.2124282935483288
20
17.267318887949763
10
-0.21242829354833903
20
17.267318887949763
10
-0.21242829354833903
20
22.267318887949781
0
LWPOLYLINE
5
164
100
AcDbEntity
8
0
100
AcDbPolyline
90
4
70
1
43
0.0
10
1.7875717064516627
20
22.267318887949781
10
1.7875717064516716
20
17.267318887949763
10
6.7875717064516614
20
17.267318887949763
10
6.7875717064516614
20
22.267318887949781
0
LWPOLYLINE
5
165
100
AcDbEntity
8
0
100
AcDbPolyline
90
4
70
1
43
0.0
10
8.7875717064516614
20
22.267318887949781
10
8.7875717064516721
20
17.267318887949763
10
13.787571706451661
20
17.267318887949763
10
13.787571706451661
20
22.267318887949781
0
LWPOLYLINE
5
166
100
AcDbEntity
8
0
100
AcDbPolyline
90
4
70
1
43
0.0
10
15.787571706451665
20
22.267318887949781
10
15.787571706451672
20
17.267318887949763
10
20.787571706451665
20
17.267318887949763
10
20.787571706451665
20
22.267318887949781
0
LWPOLYLINE
5
167
100
AcDbEntity
8
0
100
AcDbPolyline
90
4
70
1
43
0.0
10
22.787571706451665
20
22.267318887949781
10
22.787571706451676
20
17.267318887949763
10
27.787571706451665
20
17.267318887949763
10
27.787571706451665
20
22.267318887949781
0
LWPOLYLINE
5
168
100
AcDbEntity
8
0
100
AcDbPolyline
90
4
70
1
43
0.0
10
-54.212428293548342
20
6.6673188879497758
10
-54.212428293548328
20
1.667318887949758
10
-49.212428293548342
20
1.667318887949758
10
-49.212428293548342
20
6.6673188879497758
0
LWPOLYLINE
5
169
100
AcDbEntity
8
0
100
AcDbPolyline
90
4
70
1
43
0.0
10
-47.212428293548342
20
6.6673188879497758
10
-47.212428293548342
20
1.667318887949758
10
-42.212428293548349
20
1.667318887949758
10
-42.212428293548349
20
6.6673188879497758
0
LWPOLYLINE
5
170
100
AcDbEntity
8
0
100
AcDbPolyline
90
4
70
1
43
0.0
10
-40.212428293548342
20
6.6673188879497758
10
-40.212428293548328
20
1.667318887949758
10
-35.212428293548342
20
1.667318887949758
10
-35.212428293548342
20
6.6673188879497758
0
LWPOLYLINE
5
171
100
AcDbEntity
8
0
100
AcDbPolyline
90
4
70
1
43
0.0
10
-33.212428293548342
20
6.6673188879497758
10
-33.212428293548328
20
1.667318887949758
10
-28.212428293548339
20
1.667318887949758
10
-28.212428293548339
20
6.6673188879497758
0
LWPOLYLINE
5
172
100
AcDbEntity
8
0
100
AcDbPolyline
90
4
70
1
43
0.0
10
-26.212428293548342
20
6.6673188879497758
10
-26.212428293548335
20
1.667318887949758
10
-21.212428293548342
20
1.667318887949758
10
-21.212428293548342
20
6.6673188879497758
0
LWPOLYLINE
5
173
100
AcDbEntity
8
0
100
AcDbPolyline
90
4
70
1
43
0.0
10
-19.212428293548342
20
6.6673188879497758
10
-19.212428293548331
20
1.667318887949758
10
-14.21242829354834
20
1.667318887949758
10
-14.21242829354834
20
6.6673188879497758
0
LWPOLYLINE
5
174
100
AcDbEntity
8
0
100
AcDbPolyline
90
4
70
1
43
0.0
10
-5.2124282935483377
20
6.6673188879497758
10
-5.2124282935483288
20
1.667318887949758
10
-0.21242829354833903
20
1.667318887949758
10
-0.21242829354833903
20
6.6673188879497758
0
LWPOLYLINE
5
175
100
AcDbEntity
8
0
100
AcDbPolyline
90
4
70
1
43
0.0
10
1.7875717064516627
20
6.6673188879497758
10
1.7875717064516716
20
1.667318887949758
10
6.7875717064516614
20
1.667318887949758
10
6.7875717064516614
20
6.6673188879497758
0
LWPOLYLINE
5
176
100
AcDbEntity
8
0
100
AcDbPolyline
90
4
70
1
43
0.0
10
8.7875717064516614
20
6.6673188879497758
10
8.7875717064516721
20
1.667318887949758
10
13.787571706451661
20
1.667318887949758
10
13.787571706451661
20
6.6673188879497758
0
LWPOLYLINE
5
177
100
AcDbEntity
8
0
100
AcDbPolyline
90
4
70
1
43
0.0
10
15.787571706451665
20
6.6673188879497758
10
15.787571706451672
20
1.667318887949758
10
20.787571706451665
20
1.667318887949758
10
20.787571706451665
20
6.6673188879497758
0
LWPOLYLINE
5
178
100
AcDbEntity
8
0
100
AcDbPolyline
90
4
70
1
43
0.0
10
22.787571706451665
20
6.6673188879497758
10
22.787571706451676
20
1.667318887949758
10
27.787571706451665
20
1.667318887949758
10
27.787571706451665
20
6.6673188879497758
0
LWPOLYLINE
5
179
100
AcDbEntity
8
0
100
AcDbPolyline
90
4
70
1
43
0.0
10
29.787571706451665
20
6.6673188879497758
10
29.787571706451672
20
1.667318887949758
10
34.787571706451665
20
1.667318887949758
10
34.787571706451665
20
6.6673188879497758
0
LINE
5
180
100
AcDbEntity
8
0
100
AcDbLine
10
32.575144232467174
20
-1.7165354093346921
30
0
11
-52.000000819563809
21
-1.7165354093346952
31
0
0
ARC
5
181
100
AcDbEntity
8
0
100
AcDbCircle
10
11.028455262144373
20
74.463764638024898
30
0
40
2.9999999999999991
210
0
220
0
230
1
100
AcDbArc
50
180
51
270
0
ARC
5
182
100
AcDbEntity
8
0
100
AcDbCircle
10
11.999999999999996
20
68.463764638024898
30
0
40
3.0000000000000004
210
0
220
-0
230
1
100
AcDbArc
50
0
51
90
0
ARC
5
183
100
AcDbEntity
8
0
100
AcDbCircle
10
5.0284552621443463
20
83.467318887949773
30
0
40
3.0000000000000249
210
0
220
-0
230
1
100
AcDbArc
50
0
51
89.99999999999946
0
ARC
5
184
100
AcDbEntity
8
0
100
AcDbCircle
10
-24.453311849240983
20
83.467318887949773
30
0
40
3.0000000000000249
210
0
220
0
230
1
100
AcDbArc
50
90.000000000000071
51
180
0
ARC
5
185
100
AcDbEntity
8
0
100
AcDbCircle
10
18.000000000000036
20
43.426953278691073
30
0
40
3.0000000000000315
210
0
220
0
230
1
100
AcDbArc
50
180
51
269.99999999999983
0
ARC
5
186
100
AcDbEntity
8
0
100
AcDbCircle
10
18.734582869393776
20
37.426953278691016
30
0
40
3.0000000000000226
210
0
220
0
230
1
100
AcDbArc
50
0
51
90
0
ARC
5
187
100
AcDbEntity
8
0
100
AcDbCircle
10
24.734582869393829
20
27.91608452629163
30
0
40
3.0000000000000249
210
0
220
0
230
1
100
AcDbArc
50
180
51
270.00000000000006
0
ARC
5
188
100
AcDbEntity
8
0
100
AcDbCircle
10
26.000000432133639
20
21.916084526291591
30
0
40
3.000000000000016
210
0
220
-0
230
1
100
AcDbArc
50
0
51
90.000000000000071
0
ARC
5
189
100
AcDbEntity
8
0
100
AcDbCircle
10
32.575144232467153
20
6.4904695751443828
30
0
40
3.0000000000000249
210
-0
220
0
230
1
100
AcDbArc
50
0
51
90
0
ARC
5
190
100
AcDbEntity
8
0
100
AcDbCircle
10
32.000000432133696
20
12.490469575144427
30
0
40
3.0000000000000204
210
0
220
0
230
1
100
AcDbArc
50
180
51
270.00000000000011
0
ARC
5
191
100
AcDbEntity
8
0
100
AcDbCircle
10
-30.453311849241047
20
74.466526440722177
30
0
40
3.0000000000000338
210
-0
220
0
230
1
100
AcDbArc
50
270.00000000000011
51
360
0
ARC
5
192
100
AcDbEntity
8
0
100
AcDbCircle
10
-31.424856587096606
20
68.466526440722106
30
0
40
3.0000000000000338
210
0
220
0
230
1
100
AcDbArc
50
90.000000000000199
51
180
0
ARC
5
193
100
AcDbEntity
8
0
100
AcDbCircle
10
-37.424856587096684
20
43.426953278691073
30
0
40
2.9999999999880398
210
-0
220
0
230
1
100
AcDbArc
50
270.17741827471571
51
360
0
ARC
5
194
100
AcDbEntity
8
0
100
AcDbCircle
10
-52.000000819563809
20
6.4904695751443864
30
0
40
3.0000000000000293
210
0
220
-0
230
1
100
AcDbArc
50
90
51
180
0
ARC
5
195
100
AcDbEntity
8
0
100
AcDbCircle
10
-51.424857019230359
20
12.490469575144445
30
0
40
3.0000000000000302
210
0
220
0
230
1
100
AcDbArc
50
270.00000000000011
51
360
0
ARC
5
196
100
AcDbEntity
8
0
100
AcDbCircle
10
-52.000000819563795
20
1.2834645906653379
30
0
40
3.0000000000000338
210
0
220
0
230
1
100
AcDbArc
50
180
51
269.99999999999972
0
ARC
5
197
100
AcDbEntity
8
0
100
AcDbCircle
10
-38.445330796199613
20
37.423764570799761
30
0
40
3.0000000000179581
210
0
220
0
230
1
100
AcDbArc
50
90.177418274715436
51
180
0
LINE
5
198
100
AcDbEntity
8
0
100
AcDbLine
10
21.734582869393805
20
29.916084526291577
30
0
11
-41.44533079621187
21
29.916084526291765
31
0
0
LINE
5
199
100
AcDbEntity
8
0
100
AcDbLine
10
-41.445330796212083
20
27.916084526291641
30
0
11
21.734582869393805
21
27.916084526291623
31
0
0
ARC
5
200
100
AcDbEntity
8
0
100
AcDbCircle
10
32.575144232467188
20
1.2834645906652995
30
0
40
2.9999999999999916
210
0
220
0
230
1
100
AcDbArc
50
-90.000000000000313
51
0
0
LINE
5
201
100
AcDbEntity
8
0
100
AcDbLine
10
-41.445330796212083
20
27.565262000023559
30
0
11
-41.445330796212083
21
27.916084526291641
31
0
0
ARC
5
202
100
AcDbEntity
8
0
100
AcDbCircle
10
-44.445330796212062
20
27.565262000023548
30
0
40
2.9999999999999805
210
0
220
0
230
1
100
AcDbArc
50
-90.000000000000568
51
0
0
LINE
5
203
100
AcDbEntity
8
0
100
AcDbLine
10
-44.44533079621209
20
24.565262000023566
30
0
11
-45.42485701923033
21
24.565262000023566
31
0
0
LINE
5
204
100
AcDbEntity
8
0
100
AcDbLine
10
-48.424857019230316
20
21.565262000023569
30
0
11
-48.424857019230323
21
21.618941140222972
31
0
0
ARC
5
205
100
AcDbEntity
8
0
100
AcDbCircle
10
-45.424857019230338
20
21.56526200002358
30
0
40
2.9999999999999849
210
0
220
-0
230
1
100
AcDbArc
50
89.999999999999872
51
180
0
ENDSEC
0
SECTION
2
OBJECTS
0
DICTIONARY
5
C
100
AcDbDictionary
3
ACAD_GROUP
350
D
3
ACAD_MLINESTYLE
350
17
0
DICTIONARY
5
D
100
AcDbDictionary
0
DICTIONARY
5
1A
330
C
100
AcDbDictionary
0
DICTIONARY
5
17
100
AcDbDictionary
0
ENDSEC
0
EOF
